<?xml version="1.0"?>
<svg xmlns="http://www.w3.org/2000/svg" xmlns:xlink="http://www.w3.org/1999/xlink" xmlns:svgjs="http://svgjs.com/svgjs" version="1.1" width="512" height="512" x="0" y="0" viewBox="0 0 512 512" style="enable-background:new 0 0 512 512" xml:space="preserve" class=""><g>
<circle xmlns="http://www.w3.org/2000/svg" style="" cx="256" cy="256" r="256" fill="#42c114" data-original="#dcd732" class=""/>
<path xmlns="http://www.w3.org/2000/svg" style="" d="M98.898,138.632v234.735l137.918,137.918C243.15,511.755,249.546,512,256,512  c141.385,0,256-114.615,256-256c0-6.454-0.245-12.85-0.714-19.184l-98.184-98.184h-93.933l-32.878-32.878L98.898,138.632z" fill="#3e8305" data-original="#a0af32" class=""/>
<g xmlns="http://www.w3.org/2000/svg">
	<polygon style="" points="98.898,373.368 286.292,406.246 286.292,105.754 98.898,138.632  " fill="#006941" data-original="#006941" class=""/>
	<rect x="295.41" y="138.63" style="" width="117.69" height="234.74" fill="#006941" data-original="#006941" class=""/>
</g>
<g xmlns="http://www.w3.org/2000/svg">
	<rect x="295.41" y="162.46" style="" width="29.59" height="32.22" fill="#ffffff" data-original="#ffffff" class=""/>
	<rect x="295.41" y="214.08" style="" width="29.59" height="32.22" fill="#ffffff" data-original="#ffffff" class=""/>
	<rect x="295.41" y="265.7" style="" width="29.59" height="32.22" fill="#ffffff" data-original="#ffffff" class=""/>
	<rect x="295.41" y="317.32" style="" width="29.59" height="32.22" fill="#ffffff" data-original="#ffffff" class=""/>
	<rect x="340.12" y="162.46" style="" width="51.618" height="32.22" fill="#ffffff" data-original="#ffffff" class=""/>
	<rect x="340.12" y="214.08" style="" width="51.618" height="32.22" fill="#ffffff" data-original="#ffffff" class=""/>
	<rect x="340.12" y="265.7" style="" width="51.618" height="32.22" fill="#ffffff" data-original="#ffffff" class=""/>
	<rect x="340.12" y="317.32" style="" width="51.618" height="32.22" fill="#ffffff" data-original="#ffffff" class=""/>
	<polygon style="" points="226.195,207.943 204.81,207.943 188.638,236.65 172.467,207.943 151.081,207.943    177.946,255.631 148.451,307.989 169.836,307.989 188.638,274.612 207.441,307.989 228.826,307.989 199.331,255.631  " fill="#ffffff" data-original="#ffffff" class=""/>
</g>
<g xmlns="http://www.w3.org/2000/svg">
</g>
<g xmlns="http://www.w3.org/2000/svg">
</g>
<g xmlns="http://www.w3.org/2000/svg">
</g>
<g xmlns="http://www.w3.org/2000/svg">
</g>
<g xmlns="http://www.w3.org/2000/svg">
</g>
<g xmlns="http://www.w3.org/2000/svg">
</g>
<g xmlns="http://www.w3.org/2000/svg">
</g>
<g xmlns="http://www.w3.org/2000/svg">
</g>
<g xmlns="http://www.w3.org/2000/svg">
</g>
<g xmlns="http://www.w3.org/2000/svg">
</g>
<g xmlns="http://www.w3.org/2000/svg">
</g>
<g xmlns="http://www.w3.org/2000/svg">
</g>
<g xmlns="http://www.w3.org/2000/svg">
</g>
<g xmlns="http://www.w3.org/2000/svg">
</g>
<g xmlns="http://www.w3.org/2000/svg">
</g>
</g></svg>
