<?xml version="1.0"?>
<svg xmlns="http://www.w3.org/2000/svg" xmlns:xlink="http://www.w3.org/1999/xlink" xmlns:svgjs="http://svgjs.com/svgjs" version="1.1" width="512" height="512" x="0" y="0" viewBox="0 0 512 512" style="enable-background:new 0 0 512 512" xml:space="preserve" class=""><g>
<circle xmlns="http://www.w3.org/2000/svg" style="" cx="256" cy="256" r="256" fill="#93d6ff" data-original="#d2f0ff" class=""/>
<path xmlns="http://www.w3.org/2000/svg" style="" d="M499.88,334.007l-0.015-0.016c0.459-1.436,0.921-2.871,1.355-4.318L366.125,194.579l-7.14-7.443  h-11.198l-74.048-74.047L95.492,144.361v223.278l143.804,143.804C244.82,511.799,250.386,512,256,512  c79.812,0,151.079-36.533,198.023-93.78l0.01,0.01C474.271,393.532,490.039,364.816,499.88,334.007z" fill="#0b3348" data-original="#73c8f0" class=""/>
<polygon xmlns="http://www.w3.org/2000/svg" style="" points="273.74,398.912 95.492,367.639 95.492,144.361 273.74,113.088 " fill="#1e73be" data-original="#1e73be" class=""/>
<path xmlns="http://www.w3.org/2000/svg" style="" d="M184.219,296.977c-25.094,0-41.887-21.516-41.887-43.583c0-22.462,17.6-43.583,42.251-43.583  c24.78,0,41.645,22.107,41.645,43.825C226.228,276.598,208.401,296.977,184.219,296.977z M159.281,253.394  c0,15.319,9.607,28.813,25.061,28.813c15.485,0,25.059-13.858,25.059-28.813c0-14.269-8.973-28.692-25.059-28.692  C168.471,224.703,159.281,238.61,159.281,253.394z" fill="#ffffff" data-original="#ffffff"/>
<g xmlns="http://www.w3.org/2000/svg">
	<polygon style="" points="358.985,187.135 282.533,187.135 282.533,268.885 358.985,204.674  " fill="#1e73be" data-original="#1e73be" class=""/>
	<path style="" d="M282.533,278.981v45.883h76.452V214.77C343.494,227.781,282.533,278.981,282.533,278.981z" fill="#1e73be" data-original="#1e73be" class=""/>
</g>
<g xmlns="http://www.w3.org/2000/svg">
</g>
<g xmlns="http://www.w3.org/2000/svg">
</g>
<g xmlns="http://www.w3.org/2000/svg">
</g>
<g xmlns="http://www.w3.org/2000/svg">
</g>
<g xmlns="http://www.w3.org/2000/svg">
</g>
<g xmlns="http://www.w3.org/2000/svg">
</g>
<g xmlns="http://www.w3.org/2000/svg">
</g>
<g xmlns="http://www.w3.org/2000/svg">
</g>
<g xmlns="http://www.w3.org/2000/svg">
</g>
<g xmlns="http://www.w3.org/2000/svg">
</g>
<g xmlns="http://www.w3.org/2000/svg">
</g>
<g xmlns="http://www.w3.org/2000/svg">
</g>
<g xmlns="http://www.w3.org/2000/svg">
</g>
<g xmlns="http://www.w3.org/2000/svg">
</g>
<g xmlns="http://www.w3.org/2000/svg">
</g>
</g></svg>
