<?xml version="1.0"?>
<svg xmlns="http://www.w3.org/2000/svg" xmlns:xlink="http://www.w3.org/1999/xlink" xmlns:svgjs="http://svgjs.com/svgjs" version="1.1" width="512" height="512" x="0" y="0" viewBox="0 0 512 512" style="enable-background:new 0 0 512 512" xml:space="preserve" class=""><g>
<circle xmlns="http://www.w3.org/2000/svg" style="" cx="256" cy="256" r="256" fill="#ffd23c" data-original="#ffd23c" class=""/>
<path xmlns="http://www.w3.org/2000/svg" style="" d="M99.528,139.103v233.794l138.464,138.464C243.942,511.774,249.944,512,256,512  c141.385,0,256-114.615,256-256c0-6.055-0.226-12.057-0.639-18.008l-98.889-98.889h-93.555l-32.746-32.746L99.528,139.103z" fill="#ffa50a" data-original="#ffa50a" class=""/>
<g xmlns="http://www.w3.org/2000/svg">
	<polygon style="" points="286.17,405.643 99.528,372.897 99.528,139.103 286.17,106.357  " fill="#f3471f" data-original="#ff640a" class=""/>
	<rect x="295.25" y="139.1" style="" width="117.22" height="233.79" fill="#f3471f" data-original="#ff640a" class=""/>
</g>
<g xmlns="http://www.w3.org/2000/svg">
	<path style="" d="M159.326,296.171v-84.547h35.843c15.388,0,26.913,14.167,26.913,28.103   c0,14.556-10.847,28.103-26.317,28.103h-20.006v28.341H159.326z M175.759,253.421h19.053c6.893,0,10.599-6.428,10.599-13.694   c0-7.165-4.166-13.694-11.313-13.694h-18.339L175.759,253.421L175.759,253.421z" fill="#ffffff" data-original="#ffffff"/>
	<path style="" d="M333.03,161.204c-18.256,0-33.055,14.799-33.055,33.055s14.799,33.055,33.055,33.055   c18.079,0,32.758-14.515,33.042-32.526H333.03V161.204z" fill="#ffffff" data-original="#ffffff"/>
	<path style="" d="M339.902,158.066v29.698h27.88c0.025-0.487,0.038-0.977,0.038-1.469   C367.821,170.807,355.349,158.238,339.902,158.066z" fill="#ffffff" data-original="#ffffff"/>
	<rect x="295.25" y="242.6" style="" width="80.05" height="13.399" fill="#ffffff" data-original="#ffffff"/>
	<rect x="295.25" y="266.1" style="" width="80.05" height="13.399" fill="#ffffff" data-original="#ffffff"/>
	<rect x="295.25" y="289.59" style="" width="80.05" height="13.399" fill="#ffffff" data-original="#ffffff"/>
	<rect x="295.25" y="313.08" style="" width="80.05" height="13.399" fill="#ffffff" data-original="#ffffff"/>
</g>
<g xmlns="http://www.w3.org/2000/svg">
</g>
<g xmlns="http://www.w3.org/2000/svg">
</g>
<g xmlns="http://www.w3.org/2000/svg">
</g>
<g xmlns="http://www.w3.org/2000/svg">
</g>
<g xmlns="http://www.w3.org/2000/svg">
</g>
<g xmlns="http://www.w3.org/2000/svg">
</g>
<g xmlns="http://www.w3.org/2000/svg">
</g>
<g xmlns="http://www.w3.org/2000/svg">
</g>
<g xmlns="http://www.w3.org/2000/svg">
</g>
<g xmlns="http://www.w3.org/2000/svg">
</g>
<g xmlns="http://www.w3.org/2000/svg">
</g>
<g xmlns="http://www.w3.org/2000/svg">
</g>
<g xmlns="http://www.w3.org/2000/svg">
</g>
<g xmlns="http://www.w3.org/2000/svg">
</g>
<g xmlns="http://www.w3.org/2000/svg">
</g>
</g></svg>
